<?xml version="1.0" encoding="UTF-8"?><svg id="a" xmlns="http://www.w3.org/2000/svg" viewBox="0 0 1672.1 2424.33"><defs><style>.b{fill:#13171c;}.c{fill:#fffbf8;}.d{fill:#282b2a;}.e{fill:none;stroke:#fffbf8;stroke-miterlimit:10;stroke-width:2px;}.f{fill:#aa7f63;}</style></defs><rect class="d" x="272.67" y="157.07" width="1366" height="2194"/><rect class="d" x="0" y="647.55" width="225.51" height="225.51" transform="translate(-647.55 873.06) rotate(-90)"/><rect class="b" x="0" y="891.7" width="225.51" height="225.51" transform="translate(-891.7 1117.21) rotate(-90)"/><rect class="c" x="0" y="157.39" width="225.51" height="225.51" transform="translate(-157.39 382.9) rotate(-90)"/><rect class="f" x="0" y="403.4" width="225.51" height="225.51" transform="translate(-403.4 628.91) rotate(-90)"/><path class="e" d="M748.03,157.39c-58.11,138.37-25.15,295.58,120.96,358.77,235.68,101.92,311.28-29.13,348.48,131.39s60.2,279.53,210.2,279.53,211-81,211-81"/><path class="e" d="M748.03,85.39c-58.11,138.37-25.15,295.58,120.96,358.77,235.68,101.92,311.28-29.13,348.48,131.39s60.2,279.53,210.2,279.53,211-81,211-81"/><path class="e" d="M748.03,.39c-58.11,138.37-25.15,295.58,120.96,358.77,235.68,101.92,311.28-29.13,348.48,131.39s60.2,279.53,210.2,279.53,211-81,211-81"/><path class="e" d="M272.67,542.23c77.76-6.94,167.6-9,240.05,24.31,119.94,55.15,56.36,174.1,45.2,272.69-18.06,159.46,154.01,260.32,159.21,417.12,2.61,78.68-58.15,261.09-165.1,244.97-104.39-15.73-116.18-167.53-112.15-247.25,12.3-243.5-167.2-233.05-167.2-233.05"/><path class="e" d="M231.67,494.23c77.76-6.94,167.6-9,240.05,24.31,119.94,55.15,56.36,174.1,45.2,272.69-18.06,159.46,154.01,260.32,159.21,417.12,2.61,78.68-58.15,261.09-165.1,244.97-104.39-15.73-116.18-167.53-112.15-247.25,12.3-243.5-167.2-233.05-167.2-233.05"/><path class="e" d="M203.67,449.23c77.76-6.94,167.6-9,240.05,24.31,119.94,55.15,56.36,174.1,45.2,272.69-18.06,159.46,154.01,260.32,159.21,417.12,2.61,78.68-58.15,261.09-165.1,244.97-104.39-15.73-116.18-167.53-112.15-247.25,12.3-243.5-167.2-233.05-167.2-233.05"/><path class="e" d="M1638.67,1226.55c-60.16,28.6-127.11,38-193.95,12.84-22.31-8.4-43.34-20.12-66.1-27.25-74.78-23.41-140.93,41.79-160.46,108.97-20.99,72.21-10.46,152,15.42,221.75,14.43,38.89,37.83,75.62,72.13,98.96,41.79,28.43,97.33,24.72,143.89,10.26,13.93-4.33,27.59-10,42.07-11.77s30.43,1,40.68,11.38c10.22,10.36,12.78,25.96,13.29,40.5,1.5,43.16-17.63,77.35-24.97,118.24-14.05,78.32,32.35,148.16,107.69,168.22,3.21,.85,6.66,1.66,10.31,2.4"/><path class="e" d="M1651.67,1188.55c-60.16,28.6-127.11,38-193.95,12.84-22.31-8.4-43.34-20.12-66.1-27.25-74.78-23.41-140.93,41.79-160.46,108.97-20.99,72.21-10.46,152,15.42,221.75,14.43,38.89,37.83,75.62,72.13,98.96,41.79,28.43,97.33,24.72,143.89,10.26,13.93-4.33,27.59-10,42.07-11.77s30.43,1,40.68,11.38c10.22,10.36,12.78,25.96,13.29,40.5,1.5,43.16-17.63,77.35-24.97,118.24-14.05,78.32,32.35,148.16,107.69,168.22,3.21,.85,6.66,1.66,10.31,2.4"/><path class="e" d="M1671.67,1146.55c-60.16,28.6-127.11,38-193.95,12.84-22.31-8.4-43.34-20.12-66.1-27.25-74.78-23.41-140.93,41.79-160.46,108.97-20.99,72.21-10.46,152,15.42,221.75,14.43,38.89,37.83,75.62,72.13,98.96,41.79,28.43,97.33,24.72,143.89,10.26,13.93-4.33,27.59-10,42.07-11.77s30.43,1,40.68,11.38c10.22,10.36,12.78,25.96,13.29,40.5,1.5,43.16-17.63,77.35-24.97,118.24-14.05,78.32,32.35,148.16,107.69,168.22,3.21,.85,6.66,1.66,10.31,2.4"/><path class="e" d="M272.67,1877.11c35.58-68.41,114.01-198.84,206.36-179.07,24.91,5.33,46.97,20.26,64.67,38.58,23.3,24.11,39.97,54.57,47.74,87.18,16.15,67.83,7.8,128.98,55.73,185.77,92,109,397,29,432,170,11.84,47.7,46.71,74.41,94.39,80.18,53.18,6.44,105.99-22.08,158.67-8.54,36.97,9.5,104.49,54.47,92.6,99.86"/><path class="e" d="M257.67,1905.11c35.58-68.41,114.01-198.84,206.36-179.07,24.91,5.33,46.97,20.26,64.67,38.58,23.3,24.11,39.97,54.57,47.74,87.18,16.15,67.83,7.8,128.98,55.73,185.77,92,109,397,29,432,170,11.84,47.7,46.71,74.41,94.39,80.18,53.18,6.44,105.99-22.08,158.67-8.54,36.97,9.5,104.49,54.47,92.6,99.86"/><path class="e" d="M246.67,1950.11c35.58-68.41,114.01-198.84,206.36-179.07,24.91,5.33,46.97,20.26,64.67,38.58,23.3,24.11,39.97,54.57,47.74,87.18,16.15,67.83,7.8,128.98,55.73,185.77,92,109,397,29,432,170,11.84,47.7,46.71,74.41,94.39,80.18,53.18,6.44,105.99-22.08,158.67-8.54,36.97,9.5,104.49,54.47,92.6,99.86"/><path class="e" d="M815.69,834.19c40.49-79.84,126.34-133.51,215.64-78.43,46.24,28.52,77.05,76.2,102.29,124.3,4.76,9.07,9.49,18.61,9.8,28.85,.56,18.7-13.25,34.19-23.24,50.01-18.83,29.82-25.45,67.11-18.04,101.59,8,37.23,31.36,70.32,35.82,108.14,5.44,46.05-18.82,91.69-53.08,122.94-34.26,31.25-77.56,50.47-120.45,68.07-16.33,6.7-33.55,13.37-51.11,11.56-35.51-3.67-58.66-40.6-64.63-75.79-9.3-54.82,9.35-111.32,1.4-166.36-8.09-56-42.82-104.91-54.76-160.21-9.55-44.19-.77-93,20.36-134.67Z"/><path class="e" d="M834.69,808.19c40.49-79.84,126.34-133.51,215.64-78.43,46.24,28.52,77.05,76.2,102.29,124.3,4.76,9.07,9.49,18.61,9.8,28.85,.56,18.7-13.25,34.19-23.24,50.01-18.83,29.82-25.45,67.11-18.04,101.59,8,37.23,31.36,70.32,35.82,108.14,5.44,46.05-18.82,91.69-53.08,122.94-34.26,31.25-77.56,50.47-120.45,68.07-16.33,6.7-33.55,13.37-51.11,11.56-35.51-3.67-58.66-40.6-64.63-75.79-9.3-54.82,9.35-111.32,1.4-166.36-8.09-56-42.82-104.91-54.76-160.21-9.55-44.19-.77-93,20.36-134.67Z"/><path class="e" d="M851.69,781.19c40.49-79.84,126.34-133.51,215.64-78.43,46.24,28.52,77.05,76.2,102.29,124.3,4.76,9.07,9.49,18.61,9.8,28.85,.56,18.7-13.25,34.19-23.24,50.01-18.83,29.82-25.45,67.11-18.04,101.59,8,37.23,31.36,70.32,35.82,108.14,5.44,46.05-18.82,91.69-53.08,122.94-34.26,31.25-77.56,50.47-120.45,68.07-16.33,6.7-33.55,13.37-51.11,11.56-35.51-3.67-58.66-40.6-64.63-75.79-9.3-54.82,9.35-111.32,1.4-166.36-8.09-56-42.82-104.91-54.76-160.21-9.55-44.19-.77-93,20.36-134.67Z"/><path class="e" d="M963.76,1605.83c-2.62-3.94-5.4-7.78-8.41-11.45-94.33-114.93-217.04,123.05-234.64,194.99-2.49,10.18-4.55,20.85-2.21,31.07,6.96,30.42,46.72,39.34,77.53,34.38,59.24-9.53,127.33-53.49,187.39-25.08,33.48,15.84,51.48,51.84,75.8,79.78,25.51,29.32,61.42,54.48,67.02,92.94,3.33,22.83-5,50.63,12.59,69.23,20.49,21.68,57.1,12.77,79.31-1.13,48.7-30.49,77.23-87.17,76.7-144.19-.46-48.23-22.05-95.89-58.01-128.03-70.11-62.66-185.27-64.65-241.22-140.22-12.14-16.4-20.58-35.34-31.85-52.29Z"/><path class="e" d="M963.76,1572.83c-2.62-3.94-5.4-7.78-8.41-11.45-94.33-114.93-217.04,123.05-234.64,194.99-2.49,10.18-4.55,20.85-2.21,31.07,6.96,30.42,46.72,39.34,77.53,34.38,59.24-9.53,127.33-53.49,187.39-25.08,33.48,15.84,51.48,51.84,75.8,79.78,25.51,29.32,61.42,54.48,67.02,92.94,3.33,22.83-5,50.63,12.59,69.23,20.49,21.68,57.1,12.77,79.31-1.13,48.7-30.49,77.23-87.17,76.7-144.19-.46-48.23-22.05-95.89-58.01-128.03-70.11-62.66-185.27-64.65-241.22-140.22-12.14-16.4-20.58-35.34-31.85-52.29Z"/><path class="e" d="M963.76,1539.83c-2.62-3.94-5.4-7.78-8.41-11.45-94.33-114.93-217.04,123.05-234.64,194.99-2.49,10.18-4.55,20.85-2.21,31.07,6.96,30.42,46.72,39.34,77.53,34.38,59.24-9.53,127.33-53.49,187.39-25.08,33.48,15.84,51.48,51.84,75.8,79.78,25.51,29.32,61.42,54.48,67.02,92.94,3.33,22.83-5,50.63,12.59,69.23,20.49,21.68,57.1,12.77,79.31-1.13,48.7-30.49,77.23-87.17,76.7-144.19-.46-48.23-22.05-95.89-58.01-128.03-70.11-62.66-185.27-64.65-241.22-140.22-12.14-16.4-20.58-35.34-31.85-52.29Z"/></svg>